<svg width="352" height="100" viewBox="0 0 352 100" fill="none" xmlns="http://www.w3.org/2000/svg">
<path d="M51.0805 1.50379L81.1062 1.4707L30.7312 51.82L17.6025 64.8751L2.66504 49.9192L51.0805 1.50379ZM50.8011 46.4597C51.1908 45.945 51.9077 46.1986 52.4518 46.1325L81.0805 46.1398L54.9886 72.206L39.9739 57.2832L50.8011 46.4597Z" fill="#DDDDDD"/>
<path d="M123.309 22.5039L156.04 22.5149L156.037 28.9598C147.474 28.9598 138.908 28.9341 130.342 28.9708C129.688 29.1877 129.996 30.0076 129.923 30.5113L129.949 47.8458C130.165 48.4966 130.989 48.1841 131.496 48.2649L153.467 48.2539V54.6914C146.636 54.6877 139.809 54.6877 132.978 54.6914C131.963 54.6877 130.938 54.6252 129.934 54.798L129.857 79.2686C127.654 79.1804 125.456 79.2613 123.254 79.2135L123.25 23.5443L123.309 22.5039V22.5039ZM163.978 22.5149H170.699L170.702 61.0296L170.629 79.1657C168.441 79.1252 166.254 79.1142 164.07 79.173C163.901 78.276 163.971 77.3642 163.971 76.4598L163.978 22.5149V22.5149ZM229.757 27.2907L236.5 27.2943L236.511 38.6914C239.809 38.7723 243.125 38.5443 246.415 38.8054C246.324 40.8495 246.401 42.8936 246.364 44.9377C243.085 44.9451 239.809 44.9708 236.533 44.923L236.507 67.6216C236.577 69.7245 237.026 72.2649 239.07 73.3495C241.404 74.6767 244.272 74.0517 246.482 72.7723V79.3752C244.048 80.4782 241.272 80.6105 238.658 80.2539C234.974 79.6914 231.445 77.1804 230.331 73.5296C229.592 71.5296 229.761 69.3716 229.746 67.2833L229.732 45.1767L229.566 44.9892C227.239 44.8642 224.904 45.0076 222.574 44.9267C222.588 42.8458 222.493 40.7649 222.625 38.6877C224.993 38.6473 227.371 38.7943 229.735 38.6142L229.757 27.2907V27.2907ZM258.243 27.2686C260.485 27.3458 262.728 27.2429 264.967 27.3201L265.121 27.4892C265.206 31.2318 265.007 34.9855 265.21 38.7208C268.404 38.662 271.599 38.7098 274.79 38.6914L274.813 44.8899C271.599 45.0113 268.375 44.9377 265.162 44.9193L265.125 68.0113C265.121 70.0223 265.702 72.401 267.647 73.3899C270.033 74.6914 272.926 74.0223 275.143 72.6914L275.136 79.3311C272.772 80.3973 270.107 80.6032 267.555 80.3091C264.243 79.8679 261 77.9966 259.445 74.9635C258.695 73.3752 258.276 71.6179 258.206 69.8642V44.9451C255.879 44.9414 253.555 44.9524 251.232 44.9451L251.246 38.6693C253.537 38.7318 255.827 38.651 258.118 38.7282C258.36 34.9193 258.099 31.0848 258.243 27.2686V27.2686ZM290.971 38.9046C295.625 36.9745 300.996 36.9377 305.75 38.5554C311.195 40.4341 315.408 45.1841 316.952 50.6951C317.963 53.7502 317.923 56.9966 317.779 60.173L285.776 60.2061C286.04 63.6142 287.059 67.0885 289.426 69.6473C292.79 73.5701 298.581 75.026 303.471 73.4855C306.901 72.4745 309.577 69.8348 311.338 66.8017C313.287 67.673 315.18 68.6657 317.121 69.5591C314.467 74.6179 309.64 78.6363 303.967 79.7245C299.309 80.5958 294.213 80.6179 289.941 78.3164C284.397 75.5627 280.581 69.9561 279.493 63.9267C278.702 59.2943 278.949 54.3936 280.691 49.9966C282.518 45.1693 286.213 40.9892 290.971 38.9046M293.504 44.7171C289.588 46.526 287.066 50.5443 286.279 54.6914L310.824 54.6142C310.434 51.9046 309.471 49.151 307.485 47.1914C304.007 43.4635 298.062 42.7355 293.504 44.7171ZM332.349 45.2502C334.912 39.026 342.783 35.7576 349.007 38.3642V45.6289C346.393 44.5995 343.463 43.9635 340.702 44.776C336.93 45.8973 334.14 49.2613 333.07 52.9635C332.335 55.4635 332.61 58.0738 332.64 60.6363C332.353 63.9524 332.783 67.2723 332.566 70.5885C332.743 73.4524 332.412 76.3164 332.654 79.1841C330.368 79.2944 328.081 79.1767 325.798 79.2539C325.665 70.6105 325.779 61.9635 325.743 53.3164L325.794 38.7613C327.938 38.8201 330.085 38.7539 332.232 38.8054C332.426 40.9524 331.993 43.1105 332.349 45.2502V45.2502ZM180.338 38.6804C182.618 38.776 184.915 38.5443 187.184 38.8017L187.151 62.8973C187.129 65.8421 187.548 69.0591 189.585 71.3458C192.213 74.2576 196.665 74.7907 200.261 73.6399C205.066 71.9193 208.419 66.8311 208.224 61.7429L208.298 38.6804L215.162 38.6951L215.121 79.1546C212.945 79.1179 210.772 79.1546 208.599 79.1289L208.574 73.3716C207.165 75.1399 205.688 76.9304 203.669 78.0443C199.537 80.651 194.294 80.9966 189.665 79.662C186.68 78.7613 184.081 76.6694 182.585 73.9341C180.809 70.9267 180.36 67.3715 180.257 63.9451L180.338 38.6804V38.6804Z" fill="#DDDDDD"/>
<path d="M25.0068 72.2317L39.9737 57.2832L54.9885 72.206L55.051 72.2722L39.9774 87.206L25.0068 72.2317V72.2317Z" fill="#DDDDDD"/>
<path d="M39.9775 87.2058L55.0511 72.272L81.0915 98.3382C71.2827 98.3602 61.4775 98.3308 51.6724 98.3529C51.1136 98.4779 50.768 97.9668 50.4114 97.6506L39.9775 87.2058V87.2058Z" fill="#DDDDDD"/>
</svg>
