<svg width="169" height="100" viewBox="0 0 169 100" fill="none" xmlns="http://www.w3.org/2000/svg">
<g clip-path="url(#clip0_123_7)">
<path d="M40.0146 26.3163H71.7455V28.8015H42.9233V47.5058H70.0267V49.991H42.9233V70.5265H72.076V73.0117H40.0146V26.3163ZM74.5881 26.3163H77.9595L92.8994 46.8518L108.17 26.3163L128.94 0.231445L94.8165 49.01L112.401 73.0117H108.897L92.8994 51.1682L76.8357 73.0117H73.3982L91.1145 49.01L74.5881 26.3163ZM113.657 28.8015V26.3163H149.817V28.8015H133.158V73.0117H130.249V28.8015H113.657Z" fill="#DDDDDD"/>
<path d="M0.318359 26.3164H3.95419L54.0901 100.245L33.3713 73.0118L3.35923 29.848L3.22702 73.0118H0.318359V26.3164Z" fill="#DDDDDD"/>
<path d="M149.524 69.7764C150.126 69.7764 150.564 69.3227 150.564 68.7363C150.564 68.15 150.126 67.6963 149.524 67.6963C148.93 67.6963 148.484 68.15 148.484 68.7363C148.484 69.3227 148.93 69.7764 149.524 69.7764ZM152.382 67.0401C152.382 68.7712 153.649 69.9021 155.495 69.9021C157.462 69.9021 158.65 68.7363 158.65 66.712V59.5851H157.066V66.7051C157.066 67.8289 156.493 68.4292 155.481 68.4292C154.576 68.4292 153.96 67.8708 153.939 67.0401H152.382ZM160.723 66.9494C160.837 68.7503 162.358 69.9021 164.621 69.9021C167.041 69.9021 168.555 68.6945 168.555 66.7679C168.555 65.2532 167.692 64.4155 165.598 63.9339L164.473 63.6616C163.143 63.3545 162.605 62.9427 162.605 62.2237C162.605 61.3163 163.44 60.7229 164.692 60.7229C165.881 60.7229 166.701 61.3023 166.85 62.2307H168.392C168.3 60.5345 166.786 59.3408 164.713 59.3408C162.485 59.3408 160.999 60.5345 160.999 62.3284C160.999 63.8082 161.841 64.6878 163.688 65.1136L165.003 65.4277C166.355 65.7418 166.949 66.2025 166.949 66.9703C166.949 67.8638 166.015 68.513 164.742 68.513C163.376 68.513 162.428 67.9057 162.294 66.9494H160.723Z" fill="#DDDDDD"/>
</g>
<defs>
<clipPath id="clip0_123_7">
<rect width="168.595" height="100" fill="white" transform="translate(0.15332)"/>
</clipPath>
</defs>
</svg>
