<svg width="311" height="102" viewBox="0 0 311 102" fill="none" xmlns="http://www.w3.org/2000/svg">
<path d="M57.863 61.4448C63.6861 61.4448 68.4067 56.7242 68.4067 50.9011C68.4067 45.078 63.6861 40.3574 57.863 40.3574C52.0399 40.3574 47.3193 45.078 47.3193 50.9011C47.3193 56.7242 52.0399 61.4448 57.863 61.4448Z" fill="#DDDDDD"/>
<path fill-rule="evenodd" clip-rule="evenodd" d="M57.863 29.4634C72.0193 29.4634 85.1701 31.4947 95.0858 34.9083C107.033 39.0214 114.378 45.2557 114.378 50.9009C114.378 56.7836 106.594 63.4067 93.7641 67.6574C84.0646 70.871 71.3009 72.5486 57.863 72.5486C44.0854 72.5486 31.0388 70.974 21.23 67.6221C8.82025 63.3805 1.3457 56.6716 1.3457 50.9009C1.3457 45.3015 8.35913 39.1153 20.1382 35.0085C30.0909 31.5386 43.5665 29.4634 57.8611 29.4634H57.863Z" stroke="#DDDDDD" stroke-width="1.66272"/>
<path fill-rule="evenodd" clip-rule="evenodd" d="M39.2003 40.2441C46.2725 27.981 54.6016 17.6035 62.5125 10.7192C72.0438 2.42453 81.1141 -0.823886 86.0042 1.99599C91.1005 4.93482 92.9487 14.9875 90.2217 28.2246C88.162 38.2325 83.2369 50.127 76.5236 61.768C69.6405 73.7032 61.759 84.2185 53.956 91.039C44.0821 99.6703 34.5361 102.794 29.5372 99.911C24.6864 97.1157 22.8315 87.948 25.1585 75.6922C27.1246 65.3371 32.0588 52.627 39.1979 40.2439L39.2003 40.2441Z" stroke="#DDDDDD" stroke-width="1.66272"/>
<path fill-rule="evenodd" clip-rule="evenodd" d="M39.2177 61.7991C32.1254 49.5499 27.2967 37.1487 25.2812 26.857C22.855 14.4569 24.5704 4.97604 29.456 2.14797C34.5472 -0.799473 44.1796 2.6196 54.2857 11.5931C61.9267 18.3774 69.7729 28.5827 76.5057 40.2128C83.4086 52.1365 88.5822 64.2165 90.5948 74.3829C93.1414 87.2482 91.0803 97.0781 86.086 99.9692C81.24 102.775 72.3723 99.8044 62.9166 91.6674C54.9274 84.7927 46.3799 74.17 39.2177 61.7989V61.7991Z" stroke="#DDDDDD" stroke-width="1.66272"/>
<path fill-rule="evenodd" clip-rule="evenodd" d="M175.255 77.3438L162.389 57.8837C168.892 57.3093 174.751 52.5924 174.751 43.9751C174.751 35.2066 168.536 29.5947 159.816 29.5947H140.668V77.3075H146.6V58.3494H156.104L168.252 77.3075L175.255 77.3438ZM159.106 53.1639H146.603V34.9224H159.106C164.754 34.9224 168.611 38.6414 168.611 44.0083C168.611 49.3753 164.751 53.1699 159.106 53.1699V53.1639ZM197.336 78.1995C202.984 78.1995 207.626 76.3399 211.057 72.9081L208.484 69.4007C205.766 72.1915 201.767 73.7638 197.838 73.7638C190.408 73.7638 185.832 68.3273 185.403 61.8205H213.34V60.4599C213.34 50.0888 207.194 41.9311 196.759 41.9311C186.898 41.9311 179.756 50.0163 179.756 60.0305C179.756 70.8339 187.116 78.1723 197.333 78.1723L197.336 78.1995ZM208.058 57.8807H185.406C185.693 52.5894 189.333 46.3607 196.696 46.3607C204.558 46.3607 207.986 52.7285 208.058 57.8807ZM248.934 77.3408V53.5902C248.934 45.2208 242.863 41.9281 235.572 41.9281C229.924 41.9281 225.497 43.7876 221.782 47.6518L224.283 51.3709C227.354 48.0812 230.716 46.5784 234.859 46.5784C239.861 46.5784 243.579 49.2241 243.579 53.8744V60.097C240.791 56.8769 236.862 55.3741 232.144 55.3741C226.285 55.3741 220.063 59.0237 220.063 66.749C220.063 74.2597 226.279 78.1965 232.144 78.1965C236.789 78.1965 240.722 76.5516 243.579 73.404V77.3347L248.934 77.3408ZM234.074 74.3353C229.073 74.3353 225.569 71.1907 225.569 66.8246C225.569 62.3889 229.073 59.2414 234.074 59.2414C237.862 59.2414 241.504 60.6715 243.579 63.5349V70.0448C241.507 72.9051 237.862 74.3383 234.074 74.3383V74.3353ZM274.847 78.1995C281.135 78.1995 284.85 75.6233 287.496 72.1915L283.923 68.9018C281.637 71.9769 278.707 73.407 275.164 73.407C267.804 73.407 263.234 67.6833 263.234 60.0305C263.234 52.3777 267.807 46.7266 275.164 46.7266C278.737 46.7266 281.667 48.0872 283.923 51.2318L287.496 47.9421C284.853 44.5072 281.135 41.9341 274.847 41.9341C264.557 41.9341 257.626 49.8046 257.626 60.0335C257.626 70.335 264.557 78.1753 274.847 78.1753V78.1995ZM303.72 78.1995C306.861 78.1995 308.794 77.2682 310.153 75.9832L308.583 71.9769C307.867 72.763 306.469 73.407 304.938 73.407C302.582 73.407 301.434 71.5475 301.434 68.9714V47.5097H308.441V42.7898H301.434V33.347H296.073V42.7898H290.356V47.5127H296.073V70.1203C296.073 75.2726 298.646 78.2055 303.72 78.2055V78.1995Z" fill="#DDDDDD"/>
</svg>
