<svg width="277" height="100" viewBox="0 0 277 100" fill="none" xmlns="http://www.w3.org/2000/svg">
<g clip-path="url(#clip0_123_48)">
<path d="M83.8993 79.842L65.943 49.775L83.8993 19.708L92.5555 49.775L83.8993 79.842ZM43.9355 76.908L21.3744 54.633H57.2869L75.2431 84.7L43.9355 76.908ZM43.9355 22.55L75.1517 14.758L57.1955 44.825H21.283L43.9355 22.55ZM89.793 0L48.9994 10.542L42.9219 20.9L30.6755 20.808L0.748047 49.775L30.6755 78.742L42.9219 78.65L48.9994 89.008L89.793 99.642L100.751 60.133L94.5806 49.867L100.751 39.6L89.793 0ZM182.428 29.242C176.996 29.242 173.312 31.533 170.549 35.75H170.366V30.342H160.789V70.125H170.549V47.575C170.549 42.167 173.957 38.408 178.653 38.408C183.073 38.408 186.388 41.067 186.388 45.742V70.217H196.149V44.183C196.241 35.475 190.716 29.242 182.428 29.242V29.242ZM145.963 53.35C145.963 58.667 142.924 62.333 137.952 62.333C133.44 62.333 130.586 59.767 130.586 55.092V30.342H120.824V56.925C120.824 65.633 125.797 71.317 134.729 71.317C140.347 71.317 143.477 69.208 146.148 65.542H146.424V70.217H155.817V30.342H146.056V53.35H145.963ZM201.398 30.342H211.158V70.125H201.398V30.342ZM201.398 17.967H211.158V25.942H201.398V17.967ZM266.501 30.342L260.699 48.308C259.41 51.975 258.397 57.017 258.397 57.017H258.121C258.121 57.017 256.832 51.975 255.543 48.308L249.004 30.342H238.507L249.281 58.667C251.583 64.717 252.319 67.283 252.319 69.483C252.319 72.783 250.57 74.892 246.427 74.892H242.651V83.233H248.913C257.016 83.233 259.871 80.025 262.909 71.225L276.998 30.433H266.501V30.342ZM229.391 58.483V37.4H235.653V30.433H229.391V17.967H219.63V30.342H214.105V37.308H219.63V60.683C219.63 68.2 225.339 70.217 230.496 70.217C234.732 70.217 235.837 70.033 235.837 70.033V62.333H233.351C231.048 62.425 229.391 61.417 229.391 58.483Z" fill="#DDDDDD"/>
</g>
<defs>
<clipPath id="clip0_123_48">
<rect width="276.25" height="100" fill="white" transform="translate(0.748047)"/>
</clipPath>
</defs>
</svg>
