<svg width="395" height="100" viewBox="0 0 395 100" fill="none" xmlns="http://www.w3.org/2000/svg">
<path d="M127.531 39.1492C127.531 31.9691 120.661 24.4391 108.721 24.4391C95.3296 24.4391 80.6274 34.3251 78.3762 54.0567C76.0757 73.9813 88.388 82.8352 100.799 82.8352C113.21 82.8352 119.708 77.9663 126.354 71.4728C120.639 64.2479 113.259 67.5866 111.844 68.3226C109.503 69.6306 106.852 70.2773 104.173 70.1939C99.3845 70.1939 94.4972 68.0309 94.4972 59.0289C125.182 55.9774 127.527 46.2843 127.527 39.1492H127.531ZM112.323 40.3294C112.126 42.5417 111.249 46.3292 95.71 48.4518C98.9772 36.7394 105.243 35.8598 108.121 35.8598C108.704 35.8331 109.286 35.9326 109.828 36.1515C110.369 36.3704 110.857 36.7036 111.259 37.1285C111.661 37.5533 111.966 38.0599 112.155 38.6138C112.345 39.1676 112.412 39.7558 112.355 40.3384L112.323 40.3294ZM60.353 42.25L53.219 64.8313L48.184 25.6238C36.9503 25.6238 30.9083 33.6923 27.7575 42.2007L19.057 64.8806L17.8351 42.443C17.1728 32.014 7.6756 25.6686 0 25.6686L9.28233 82.391C21.0531 82.3461 27.4084 74.3224 30.7337 65.814L38.0916 46.5311C38.1587 47.3165 43.1758 82.3954 43.1758 82.3954C55.0003 82.3954 61.3556 74.8699 64.7615 66.6532L81.3211 25.6731C69.6622 25.6731 63.5173 33.6923 60.3441 42.25H60.353ZM170.926 24.2999C163.645 24.2999 158.082 28.2849 153.382 34.1366V34.0917L157.58 0C147.904 0 140.036 8.46348 138.523 21.0555L131.246 81.9512C136.818 81.9512 142.73 80.3267 145.908 76.1937C148.746 79.8824 152.993 82.8352 159.299 82.8352C175.617 82.8352 186.81 63.7498 186.81 45.8401C186.712 29.5055 178.844 24.3448 170.976 24.3448L170.926 24.2999ZM169.405 53.5721C167.704 63.5568 162.172 70.3464 156.851 70.3464C151.529 70.3464 149.18 67.9366 149.18 67.9366C150.209 59.186 150.845 53.8189 152.796 49.1922C154.747 44.5656 159.393 37.1881 164.231 37.1881C168.975 37.1881 171.123 43.5335 169.409 53.5676L169.405 53.5721ZM227.507 25.6283H216.121L216.166 25.0359C216.949 17.5597 218.708 13.6241 224.508 12.9824C228.469 12.5875 230.228 10.5232 230.666 8.26153L232.085 0.341053C209.26 0.192965 202.036 10.1239 200.197 25.2827L200.152 25.6283H199.906C196.191 25.6283 192.091 29.86 191.402 35.2226L191.156 37.1881H198.782L192.382 90.4102L190.422 99.9551C190.668 99.9551 190.959 100 191.201 100C201.897 99.6051 208.745 91.0967 210.258 78.7471L215.252 37.1791H218.833C222.351 37.1791 226.459 33.634 227.175 27.7329L227.507 25.6283ZM286.727 24.641C273.583 24.641 261.172 34.3789 257.368 49.6814C253.563 64.9838 259.328 83.082 278.671 83.082C298.015 83.082 309.092 64.2344 309.092 48.546C309.11 32.9519 298.61 24.6365 286.732 24.6365L286.727 24.641ZM292.053 53.074C291.373 60.0117 288.339 70.5394 280.032 70.5394C271.725 70.5394 272.849 58.2436 273.654 52.3874C274.536 46.1407 278.004 37.2375 285.479 37.2375C292.201 37.2375 292.832 45.2567 292.058 53.0784L292.053 53.074ZM374.046 42.2007L366.912 64.7819C366.719 63.0093 361.881 25.5744 361.881 25.5744C350.647 25.5744 344.632 33.643 341.481 42.1513L332.781 64.8313C332.736 63.2068 331.559 42.3936 331.559 42.3936C330.852 31.9646 321.364 25.6193 313.657 25.6193L322.89 82.3416C334.661 82.2967 341.016 74.273 344.341 65.7647L351.672 46.4818C351.717 47.2671 356.757 82.3461 356.757 82.3461C368.581 82.3461 374.909 74.8205 378.342 66.6038L394.915 25.6238C383.288 25.6238 377.129 33.643 374.001 42.2007H374.046ZM238.257 0.332083L228.679 78.1009L226.719 87.6952C226.961 87.6952 227.256 87.7401 227.498 87.7401C237.8 87.592 245.131 78.4958 246.505 67.0302L252.024 22.4107C253.698 8.78208 245.637 0.323104 238.257 0.323104V0.332083Z" fill="#DDDDDD"/>
</svg>
