<svg width="440" height="100" viewBox="0 0 440 100" fill="none" xmlns="http://www.w3.org/2000/svg">
<g clip-path="url(#clip0_123_30)">
<path d="M255.563 39.3618H238.279V41.2023C243.685 41.2023 244.555 42.3653 244.555 49.2473V61.654C244.555 68.5351 243.686 69.7953 238.279 69.7953C234.128 69.2142 231.327 66.9844 227.465 62.7199L223.024 57.8743C229.01 56.8067 232.196 53.0278 232.196 48.7625C232.196 43.4329 227.659 39.3618 219.161 39.3618H202.168V41.2023C207.574 41.2023 208.443 42.3653 208.443 49.2473V61.654C208.443 68.5351 207.574 69.7953 202.168 69.7953V71.6366H221.382V69.7953C215.976 69.7953 215.106 68.5351 215.106 61.654V58.1656H216.747L227.465 71.6366H255.563C269.37 71.6366 275.356 64.2714 275.356 55.4502C275.356 46.6307 269.371 39.3618 255.563 39.3618ZM215.107 55.1588V42.2698H219.065C223.41 42.2698 225.342 45.2742 225.342 48.7633C225.342 52.1561 223.41 55.1597 219.065 55.1597H215.107V55.1588ZM255.853 68.6322H255.177C251.702 68.6322 251.219 67.7606 251.219 63.3018V42.2698C251.219 42.2698 255.467 42.2698 255.853 42.2698C265.895 42.2698 267.728 49.635 267.728 55.3539C267.728 61.2655 265.894 68.6322 255.853 68.6322Z" fill="#3f3f46"/>
<path d="M148.389 58.7468L155.052 38.9733C156.983 33.2552 156.114 31.6082 149.935 31.6082V29.6689H168.087V31.6082C162.004 31.6082 160.556 33.0618 158.142 40.1372L147.134 73.2844H145.879L136.03 42.9473L125.989 73.2844H124.734L114.016 40.1372C111.699 33.0618 110.154 31.6082 104.554 31.6082V29.6689H125.989V31.6082C120.292 31.6082 118.746 32.9647 120.775 38.9733L127.243 58.7468L136.996 29.6689H138.831L148.389 58.7468Z" fill="#3f3f46"/>
<path d="M181.217 72.8955C170.596 72.8955 161.906 65.0456 161.906 55.449C161.906 45.9512 170.597 38.0996 181.217 38.0996C191.838 38.0996 200.527 45.9512 200.527 55.449C200.527 65.0456 191.838 72.8955 181.217 72.8955ZM181.217 41.1064C172.335 41.1064 169.244 49.1498 169.244 55.4498C169.244 61.8478 172.335 69.7949 181.217 69.7949C190.197 69.7949 193.287 61.8478 193.287 55.4498C193.287 49.1498 190.197 41.1064 181.217 41.1064Z" fill="#3f3f46"/>
<path d="M299.205 69.698V71.6364H277.094V69.698C283.563 69.698 284.722 68.051 284.722 58.3573V42.8508C284.722 33.1571 283.563 31.6072 277.094 31.6072V29.668H297.08C307.025 29.668 312.53 34.805 312.53 41.6878C312.53 48.3755 307.025 53.6088 297.08 53.6088H291.576V58.3565C291.576 68.051 292.735 69.698 299.205 69.698ZM297.08 33.1571H291.576V50.0225H297.08C302.488 50.0225 304.998 46.2428 304.998 41.6878C304.998 37.0356 302.488 33.1571 297.08 33.1571Z" fill="#3f3f46"/>
<path d="M378.86 62.5264L378.377 64.2706C377.509 67.4692 376.446 68.6322 369.591 68.6322H368.238C363.218 68.6322 362.349 67.4692 362.349 60.588V56.1301C369.881 56.1301 370.461 56.8075 370.461 61.8482H372.295V47.406H370.461C370.461 52.4459 369.881 53.1241 362.349 53.1241V42.2698H367.659C374.515 42.2698 375.576 43.4329 376.446 46.6315L376.929 48.4719H378.473L377.799 39.3618H349.411V41.2023C354.817 41.2023 355.687 42.3653 355.687 49.2473V61.654C355.687 67.9491 354.949 69.5349 350.686 69.761C346.634 69.1399 343.853 66.9215 340.047 62.7199L335.605 57.8743C341.591 56.8067 344.778 53.0278 344.778 48.7625C344.778 43.4329 340.24 39.3618 331.743 39.3618H314.75V41.2023C320.156 41.2023 321.025 42.3653 321.025 49.2473V61.654C321.025 68.5351 320.157 69.7953 314.75 69.7953V71.6366H333.965V69.7953C328.559 69.7953 327.689 68.5351 327.689 61.654V58.1656H329.33L340.047 71.6366H379.73L380.31 62.5273H378.86V62.5264ZM327.688 55.1588V42.2698H331.646C335.991 42.2698 337.923 45.2742 337.923 48.7633C337.923 52.1561 335.991 55.1597 331.646 55.1597H327.688V55.1588Z" fill="#3f3f46"/>
<path d="M398.461 72.8957C394.599 72.8957 391.219 70.861 389.771 69.6C389.288 70.0856 388.419 71.5392 388.227 72.8957H386.392V59.5219H388.323C389.096 65.9182 393.536 69.6979 399.233 69.6979C402.323 69.6979 404.834 67.9538 404.834 65.0465C404.834 62.527 402.613 60.5878 398.654 58.7465L393.151 56.1299C389.288 54.2869 386.392 51.0884 386.392 46.8247C386.392 42.1725 390.737 38.1993 396.723 38.1993C399.91 38.1993 402.613 39.3624 404.255 40.7189C404.737 40.3312 405.22 39.2644 405.51 38.1006H407.345V49.5384H405.317C404.64 44.9826 402.13 41.2029 397.014 41.2029C394.31 41.2029 391.799 42.7536 391.799 45.1776C391.799 47.6972 393.826 49.0536 398.462 51.1863L403.771 53.8029C408.407 56.0319 410.24 59.6198 410.24 62.527C410.24 68.632 404.93 72.8957 398.461 72.8957Z" fill="#3f3f46"/>
<path d="M428.199 72.8957C424.336 72.8957 420.956 70.861 419.509 69.6C419.026 70.0856 418.158 71.5392 417.965 72.8957H416.13V59.5219H418.061C418.833 65.9182 423.274 69.6979 428.971 69.6979C432.061 69.6979 434.572 67.9538 434.572 65.0465C434.572 62.527 432.351 60.5878 428.392 58.7465L422.888 56.1299C419.026 54.2869 416.129 51.0884 416.129 46.8247C416.129 42.1725 420.474 38.1993 426.461 38.1993C429.647 38.1993 432.35 39.3624 433.992 40.7189C434.474 40.3312 434.957 39.2644 435.246 38.1006H437.081V49.5384H435.054C434.378 44.9826 431.868 41.2029 426.751 41.2029C424.047 41.2029 421.536 42.7536 421.536 45.1776C421.536 47.6972 423.564 49.0536 428.199 51.1863L433.508 53.8029C438.144 56.0319 439.977 59.6198 439.977 62.527C439.977 68.632 434.667 72.8957 428.199 72.8957Z" fill="#3f3f46"/>
<path d="M7.99512 49.9988C7.99512 66.9768 17.8244 81.6492 32.0777 88.6022L11.6946 32.5425C9.32369 37.877 7.99512 43.7804 7.99512 49.9988Z" fill="#3f3f46"/>
<path d="M79.5721 47.8345C79.5721 42.5334 77.6752 38.8623 76.0483 36.0048C73.8822 32.4716 71.852 29.4795 71.852 25.9463C71.852 22.0034 74.8311 18.3331 79.0274 18.3331C79.2168 18.3331 79.3965 18.3567 79.5811 18.3673C71.9788 11.376 61.8503 7.10742 50.7257 7.10742C35.7976 7.10742 22.6639 14.7958 15.0234 26.4409C16.026 26.4711 16.9708 26.4924 17.7733 26.4924C22.2428 26.4924 29.1613 25.948 29.1613 25.948C31.4647 25.8117 31.7363 29.2078 29.4353 29.4812C29.4353 29.4812 27.1204 29.7546 24.5446 29.8901L40.1053 76.3507L49.4565 48.1985L42.799 29.8884C40.498 29.753 38.3181 29.4795 38.3181 29.4795C36.0155 29.3441 36.2854 25.81 38.5881 25.9463C38.5881 25.9463 45.6448 26.4907 49.8435 26.4907C54.3122 26.4907 61.2315 25.9463 61.2315 25.9463C63.5366 25.81 63.8073 29.2061 61.5055 29.4795C61.5055 29.4795 59.1858 29.753 56.6149 29.8884L72.0569 75.9973L76.319 61.7004C78.1663 55.7677 79.5721 51.5064 79.5721 47.8345Z" fill="#3f3f46"/>
<path d="M51.4759 53.7505L38.6553 91.1467C42.4832 92.2763 46.5316 92.8942 50.7262 92.8942C55.7023 92.8942 60.4742 92.0306 64.9161 90.4628C64.8014 90.2791 64.6974 90.0841 64.612 89.8719L51.4759 53.7505Z" fill="#3f3f46"/>
<path d="M88.2206 29.4199C88.4044 30.7862 88.5084 32.2529 88.5084 33.8305C88.5084 38.1832 87.6986 43.0761 85.2594 49.1942L72.207 87.0752C84.9106 79.6391 93.4552 65.8237 93.4552 49.9997C93.456 42.5424 91.5583 35.5298 88.2206 29.4199Z" fill="#3f3f46"/>
<path d="M50.7259 0C23.2609 0 0.915039 22.4293 0.915039 49.9988C0.915039 77.5716 23.2609 100 50.7259 100C78.1901 100 100.539 77.5716 100.539 49.9988C100.538 22.4293 78.1901 0 50.7259 0ZM50.7259 97.7082C24.5203 97.7082 3.19898 76.3057 3.19898 49.9988C3.19898 23.6935 24.5195 2.29263 50.7259 2.29263C76.9306 2.29263 98.2503 23.6935 98.2503 49.9988C98.2503 76.3057 76.9306 97.7082 50.7259 97.7082Z" fill="#3f3f46"/>
</g>
<defs>
<clipPath id="clip0_123_30">
<rect width="439.062" height="100" fill="white" transform="translate(0.915039)"/>
</clipPath>
</defs>
</svg>
