<svg width="797" height="148" viewBox="0 0 797 148" fill="none" xmlns="http://www.w3.org/2000/svg">
<path d="M65.7129 41.0273V50.5L31.4355 101.965L29.4824 103.527H65.7129V113H17.8613V103.527L52.1387 52.0625L54.1895 50.5H17.8613V41.0273H65.7129ZM94.4238 49.9141V72.5703H124.502V80.5781H94.4238V104.113H127.529V113H82.5098V41.0273H127.529V49.9141H94.4238ZM179.775 113L166.201 86.9258C166.006 86.9258 165.745 86.9583 165.42 87.0234C165.094 87.0234 164.574 87.0234 163.857 87.0234C163.206 87.0234 162.165 87.0234 160.732 87.0234C159.365 87.0234 157.477 87.0234 155.068 87.0234V113H143.35V41.0273H164.053C167.113 41.0273 170.14 41.5156 173.135 42.4922C176.13 43.4688 178.799 44.9336 181.143 46.8867C183.551 48.8398 185.472 51.2161 186.904 54.0156C188.402 56.75 189.15 59.8424 189.15 63.293C189.15 68.5013 187.946 72.9284 185.537 76.5742C183.128 80.2201 179.873 82.9219 175.771 84.6797L192.178 113H179.775ZM155.068 78.4297H165.713C167.145 78.4297 168.577 78.2018 170.01 77.7461C171.442 77.2253 172.744 76.4115 173.916 75.3047C175.088 74.1979 176.032 72.668 176.748 70.7148C177.464 68.6966 177.822 66.2227 177.822 63.293C177.822 62.1211 177.66 60.7865 177.334 59.2891C177.008 57.7266 176.325 56.2617 175.283 54.8945C174.307 53.4622 172.907 52.2904 171.084 51.3789C169.261 50.4023 166.852 49.9141 163.857 49.9141H155.068V78.4297ZM233.779 39.8555C238.076 39.8555 241.917 40.6693 245.303 42.2969C248.688 43.8594 251.585 46.1706 253.994 49.2305C256.403 52.2904 258.226 56.1315 259.463 60.7539C260.765 65.3112 261.416 70.6172 261.416 76.6719C261.416 82.7266 260.765 88.0651 259.463 92.6875C258.226 97.3099 256.403 101.151 253.994 104.211C251.585 107.271 248.688 109.582 245.303 111.145C241.917 112.707 238.076 113.488 233.779 113.488C229.482 113.488 225.641 112.707 222.256 111.145C218.87 109.582 215.973 107.271 213.564 104.211C211.221 101.151 209.398 97.3099 208.096 92.6875C206.859 88.0651 206.24 82.7266 206.24 76.6719C206.24 70.6172 206.859 65.3112 208.096 60.7539C209.398 56.1315 211.221 52.2904 213.564 49.2305C215.973 46.1706 218.87 43.8594 222.256 42.2969C225.641 40.6693 229.482 39.8555 233.779 39.8555ZM234.072 49.5234C231.663 49.5234 229.482 49.9792 227.529 50.8906C225.576 51.8021 223.916 53.3646 222.549 55.5781C221.182 57.7266 220.107 60.526 219.326 63.9766C218.61 67.4271 218.219 71.6589 218.154 76.6719C218.219 80.6432 218.48 84.1589 218.936 87.2188C219.391 90.2786 220.075 92.8828 220.986 95.0312L241.299 51.5742C239.15 50.207 236.742 49.5234 234.072 49.5234ZM233.486 103.918C235.895 103.918 238.076 103.462 240.029 102.551C242.048 101.574 243.74 100.012 245.107 97.8633C246.475 95.7148 247.516 92.9154 248.232 89.4648C249.014 85.9492 249.437 81.6849 249.502 76.6719C249.437 68.5339 248.363 62.2839 246.279 57.9219L225.869 101.477C227.887 103.104 230.426 103.918 233.486 103.918ZM301.553 113H289.639V57.8242L279.775 67.6875L271.377 59.2891L289.639 41.0273H301.553V113Z" fill="#18181b"/>
<line x1="341" y1="9.99541" x2="341.716" y2="137.993" stroke="#18181b" stroke-width="2"/>
<path d="M410.513 89.2188C410.513 91.3021 410.07 93.3333 409.185 95.3125C408.352 97.2396 407.154 98.9583 405.591 100.469C404.029 101.927 402.102 103.099 399.81 103.984C397.518 104.87 394.914 105.312 391.998 105.312C390.748 105.312 389.445 105.234 388.091 105.078C386.789 104.974 385.461 104.766 384.107 104.453C382.753 104.141 381.451 103.724 380.201 103.203C379.003 102.63 377.961 101.953 377.076 101.172L378.716 94.4531C379.445 94.8698 380.357 95.2865 381.451 95.7031C382.597 96.0677 383.768 96.4323 384.966 96.7969C386.164 97.1094 387.362 97.3698 388.56 97.5781C389.758 97.7865 390.878 97.8906 391.919 97.8906C395.097 97.8906 397.518 97.1615 399.185 95.7031C400.904 94.1927 401.763 91.9792 401.763 89.0625C401.763 87.2917 401.164 85.7812 399.966 84.5312C398.768 83.2812 397.258 82.1615 395.435 81.1719C393.664 80.1302 391.737 79.1146 389.654 78.125C387.57 77.0833 385.617 75.8854 383.794 74.5312C381.972 73.125 380.461 71.4844 379.263 69.6094C378.065 67.7344 377.466 65.3906 377.466 62.5781C377.466 60.026 377.935 57.7604 378.873 55.7812C379.81 53.8021 381.06 52.1354 382.623 50.7812C384.237 49.375 386.086 48.3073 388.169 47.5781C390.305 46.849 392.544 46.4844 394.888 46.4844C397.284 46.4844 399.706 46.7188 402.154 47.1875C404.602 47.6042 406.581 48.3073 408.091 49.2969C407.779 49.974 407.414 50.7292 406.998 51.5625C406.581 52.3438 406.19 53.099 405.826 53.8281C405.461 54.5052 405.149 55.0781 404.888 55.5469C404.628 56.0156 404.472 56.276 404.419 56.3281C404.107 56.1719 403.742 55.9635 403.326 55.7031C402.961 55.4427 402.414 55.1823 401.685 54.9219C400.956 54.6615 399.992 54.4792 398.794 54.375C397.597 54.2708 396.06 54.2969 394.185 54.4531C393.143 54.5573 392.154 54.8698 391.216 55.3906C390.279 55.8594 389.445 56.4583 388.716 57.1875C387.987 57.9167 387.414 58.75 386.998 59.6875C386.581 60.5729 386.373 61.4323 386.373 62.2656C386.373 64.349 386.972 66.0417 388.169 67.3438C389.367 68.5938 390.852 69.7135 392.623 70.7031C394.393 71.6406 396.32 72.5781 398.404 73.5156C400.487 74.401 402.414 75.4948 404.185 76.7969C406.008 78.099 407.518 79.7396 408.716 81.7188C409.914 83.6458 410.513 86.1458 410.513 89.2188ZM484.904 47.4219V53.8281H467.716V105H458.263V53.8281H441.076V47.4219H484.904ZM564.06 47.4219V75.9375C564.06 80.7812 563.513 85.0521 562.419 88.75C561.378 92.4479 559.893 95.5208 557.966 97.9688C556.039 100.417 553.695 102.266 550.935 103.516C548.175 104.766 545.102 105.391 541.716 105.391C538.279 105.391 535.18 104.766 532.419 103.516C529.711 102.266 527.367 100.417 525.388 97.9688C523.461 95.5208 521.951 92.4479 520.857 88.75C519.815 85.0521 519.294 80.7812 519.294 75.9375V47.4219H528.826V75C528.826 79.2708 529.112 82.8646 529.685 85.7812C530.31 88.6979 531.169 91.0417 532.263 92.8125C533.357 94.5312 534.685 95.7812 536.248 96.5625C537.81 97.3438 539.555 97.7344 541.482 97.7344C543.461 97.7344 545.258 97.3698 546.873 96.6406C548.487 95.9115 549.867 94.6875 551.013 92.9688C552.159 91.25 553.044 88.9323 553.669 86.0156C554.294 83.099 554.607 79.4271 554.607 75V47.4219H564.06ZM648.451 74.6094C648.451 79.349 647.93 83.4115 646.888 86.7969C645.899 90.1302 644.623 92.9427 643.06 95.2344C641.498 97.474 639.727 99.2448 637.748 100.547C635.82 101.849 633.945 102.839 632.123 103.516C630.3 104.141 628.633 104.557 627.123 104.766C625.612 104.922 624.492 105 623.763 105H601.966V47.4219H619.31C624.154 47.4219 628.399 48.2031 632.044 49.7656C635.742 51.276 638.789 53.3073 641.185 55.8594C643.633 58.4115 645.456 61.3281 646.654 64.6094C647.852 67.8385 648.451 71.1719 648.451 74.6094ZM620.638 98.125C626.992 98.125 631.576 96.0938 634.388 92.0312C637.201 87.9688 638.607 82.0833 638.607 74.375C638.607 71.9792 638.32 69.6094 637.748 67.2656C637.175 64.9219 636.055 62.8125 634.388 60.9375C632.774 59.0104 630.56 57.474 627.748 56.3281C624.935 55.1302 621.289 54.5312 616.81 54.5312H611.341V98.125H620.638ZM695.498 105H685.966V47.4219H695.498V105ZM780.669 75.9375C780.669 80.7812 780.044 85.0521 778.794 88.75C777.597 92.4479 775.904 95.5208 773.716 97.9688C771.581 100.417 769.055 102.266 766.138 103.516C763.274 104.766 760.123 105.391 756.685 105.391C753.248 105.391 750.07 104.766 747.154 103.516C744.289 102.266 741.763 100.417 739.576 97.9688C737.44 95.5208 735.748 92.4479 734.498 88.75C733.3 85.0521 732.701 80.7812 732.701 75.9375C732.701 71.0938 733.3 66.849 734.498 63.2031C735.748 59.5052 737.44 56.4323 739.576 53.9844C741.763 51.5365 744.289 49.6875 747.154 48.4375C750.07 47.1354 753.248 46.4844 756.685 46.4844C760.123 46.4844 763.274 47.1354 766.138 48.4375C769.055 49.6875 771.581 51.5365 773.716 53.9844C775.904 56.4323 777.597 59.5052 778.794 63.2031C780.044 66.849 780.669 71.0938 780.669 75.9375ZM756.451 97.7344C758.378 97.7344 760.201 97.3698 761.919 96.6406C763.69 95.8594 765.253 94.6094 766.607 92.8906C768.013 91.1719 769.107 88.9323 769.888 86.1719C770.669 83.3594 771.086 79.9479 771.138 75.9375C771.086 72.0312 770.669 68.724 769.888 66.0156C769.159 63.2552 768.117 60.9896 766.763 59.2188C765.461 57.4479 763.951 56.1719 762.232 55.3906C760.565 54.6094 758.794 54.2188 756.919 54.2188C754.992 54.2188 753.143 54.5833 751.373 55.3125C749.654 56.0417 748.091 57.2917 746.685 59.0625C745.331 60.7812 744.263 63.0208 743.482 65.7812C742.701 68.5417 742.284 71.9271 742.232 75.9375C742.284 79.8438 742.675 83.1771 743.404 85.9375C744.185 88.6979 745.227 90.9635 746.529 92.7344C747.883 94.4531 749.393 95.7292 751.06 96.5625C752.779 97.3438 754.576 97.7344 756.451 97.7344Z" fill="#18181b"/>
</svg>
