<svg width="568" height="148" viewBox="0 0 568 148" fill="none" xmlns="http://www.w3.org/2000/svg">
<path d="M44.8945 39.8555C49.1914 39.8555 53.0326 40.6693 56.418 42.2969C59.8034 43.8594 62.7005 46.1706 65.1094 49.2305C67.5182 52.2904 69.3411 56.1315 70.5781 60.7539C71.8802 65.3112 72.5312 70.6172 72.5312 76.6719C72.5312 82.7266 71.8802 88.0651 70.5781 92.6875C69.3411 97.3099 67.5182 101.151 65.1094 104.211C62.7005 107.271 59.8034 109.582 56.418 111.145C53.0326 112.707 49.1914 113.488 44.8945 113.488C40.5977 113.488 36.7565 112.707 33.3711 111.145C29.9857 109.582 27.0885 107.271 24.6797 104.211C22.3359 101.151 20.513 97.3099 19.2109 92.6875C17.974 88.0651 17.3555 82.7266 17.3555 76.6719C17.3555 70.6172 17.974 65.3112 19.2109 60.7539C20.513 56.1315 22.3359 52.2904 24.6797 49.2305C27.0885 46.1706 29.9857 43.8594 33.3711 42.2969C36.7565 40.6693 40.5977 39.8555 44.8945 39.8555ZM45.1875 49.5234C42.7786 49.5234 40.5977 49.9792 38.6445 50.8906C36.6914 51.8021 35.0312 53.3646 33.6641 55.5781C32.2969 57.7266 31.2227 60.526 30.4414 63.9766C29.7253 67.4271 29.3346 71.6589 29.2695 76.6719C29.3346 80.6432 29.5951 84.1589 30.0508 87.2188C30.5065 90.2786 31.1901 92.8828 32.1016 95.0312L52.4141 51.5742C50.2656 50.207 47.8568 49.5234 45.1875 49.5234ZM44.6016 103.918C47.0104 103.918 49.1914 103.462 51.1445 102.551C53.1628 101.574 54.8555 100.012 56.2227 97.8633C57.5898 95.7148 58.6315 92.9154 59.3477 89.4648C60.1289 85.9492 60.5521 81.6849 60.6172 76.6719C60.5521 68.5339 59.4779 62.2839 57.3945 57.9219L36.9844 101.477C39.0026 103.104 41.5417 103.918 44.6016 103.918ZM112.668 113H100.754V57.8242L90.8906 67.6875L82.4922 59.2891L100.754 41.0273H112.668V113Z" fill="#18181b"/>
<line x1="152" y1="9.99538" x2="152.716" y2="137.993" stroke="#18181b" stroke-width="2"/>
<path d="M221.513 89.2188C221.513 91.3021 221.07 93.3333 220.185 95.3125C219.352 97.2396 218.154 98.9583 216.591 100.469C215.029 101.927 213.102 103.099 210.81 103.984C208.518 104.87 205.914 105.312 202.998 105.312C201.748 105.312 200.445 105.234 199.091 105.078C197.789 104.974 196.461 104.766 195.107 104.453C193.753 104.141 192.451 103.724 191.201 103.203C190.003 102.63 188.961 101.953 188.076 101.172L189.716 94.4531C190.445 94.8698 191.357 95.2865 192.451 95.7031C193.597 96.0677 194.768 96.4323 195.966 96.7969C197.164 97.1094 198.362 97.3698 199.56 97.5781C200.758 97.7865 201.878 97.8906 202.919 97.8906C206.097 97.8906 208.518 97.1615 210.185 95.7031C211.904 94.1927 212.763 91.9792 212.763 89.0625C212.763 87.2917 212.164 85.7812 210.966 84.5312C209.768 83.2812 208.258 82.1615 206.435 81.1719C204.664 80.1302 202.737 79.1146 200.654 78.125C198.57 77.0833 196.617 75.8854 194.794 74.5312C192.972 73.125 191.461 71.4844 190.263 69.6094C189.065 67.7344 188.466 65.3906 188.466 62.5781C188.466 60.026 188.935 57.7604 189.873 55.7812C190.81 53.8021 192.06 52.1354 193.623 50.7812C195.237 49.375 197.086 48.3073 199.169 47.5781C201.305 46.849 203.544 46.4844 205.888 46.4844C208.284 46.4844 210.706 46.7188 213.154 47.1875C215.602 47.6042 217.581 48.3073 219.091 49.2969C218.779 49.974 218.414 50.7292 217.998 51.5625C217.581 52.3438 217.19 53.099 216.826 53.8281C216.461 54.5052 216.149 55.0781 215.888 55.5469C215.628 56.0156 215.472 56.276 215.419 56.3281C215.107 56.1719 214.742 55.9635 214.326 55.7031C213.961 55.4427 213.414 55.1823 212.685 54.9219C211.956 54.6615 210.992 54.4792 209.794 54.375C208.597 54.2708 207.06 54.2969 205.185 54.4531C204.143 54.5573 203.154 54.8698 202.216 55.3906C201.279 55.8594 200.445 56.4583 199.716 57.1875C198.987 57.9167 198.414 58.75 197.998 59.6875C197.581 60.5729 197.373 61.4323 197.373 62.2656C197.373 64.349 197.972 66.0417 199.169 67.3438C200.367 68.5938 201.852 69.7135 203.623 70.7031C205.393 71.6406 207.32 72.5781 209.404 73.5156C211.487 74.401 213.414 75.4948 215.185 76.7969C217.008 78.099 218.518 79.7396 219.716 81.7188C220.914 83.6458 221.513 86.1458 221.513 89.2188ZM287.904 47.4219V53.8281H270.716V105H261.263V53.8281H244.076V47.4219H287.904ZM359.06 47.4219V75.9375C359.06 80.7812 358.513 85.0521 357.419 88.75C356.378 92.4479 354.893 95.5208 352.966 97.9688C351.039 100.417 348.695 102.266 345.935 103.516C343.175 104.766 340.102 105.391 336.716 105.391C333.279 105.391 330.18 104.766 327.419 103.516C324.711 102.266 322.367 100.417 320.388 97.9688C318.461 95.5208 316.951 92.4479 315.857 88.75C314.815 85.0521 314.294 80.7812 314.294 75.9375V47.4219H323.826V75C323.826 79.2708 324.112 82.8646 324.685 85.7812C325.31 88.6979 326.169 91.0417 327.263 92.8125C328.357 94.5312 329.685 95.7812 331.248 96.5625C332.81 97.3438 334.555 97.7344 336.482 97.7344C338.461 97.7344 340.258 97.3698 341.873 96.6406C343.487 95.9115 344.867 94.6875 346.013 92.9688C347.159 91.25 348.044 88.9323 348.669 86.0156C349.294 83.099 349.607 79.4271 349.607 75V47.4219H359.06ZM435.451 74.6094C435.451 79.349 434.93 83.4115 433.888 86.7969C432.899 90.1302 431.623 92.9427 430.06 95.2344C428.498 97.474 426.727 99.2448 424.748 100.547C422.82 101.849 420.945 102.839 419.123 103.516C417.3 104.141 415.633 104.557 414.123 104.766C412.612 104.922 411.492 105 410.763 105H388.966V47.4219H406.31C411.154 47.4219 415.399 48.2031 419.044 49.7656C422.742 51.276 425.789 53.3073 428.185 55.8594C430.633 58.4115 432.456 61.3281 433.654 64.6094C434.852 67.8385 435.451 71.1719 435.451 74.6094ZM407.638 98.125C413.992 98.125 418.576 96.0938 421.388 92.0312C424.201 87.9688 425.607 82.0833 425.607 74.375C425.607 71.9792 425.32 69.6094 424.748 67.2656C424.175 64.9219 423.055 62.8125 421.388 60.9375C419.774 59.0104 417.56 57.474 414.748 56.3281C411.935 55.1302 408.289 54.5312 403.81 54.5312H398.341V98.125H407.638ZM474.498 105H464.966V47.4219H474.498V105ZM551.669 75.9375C551.669 80.7812 551.044 85.0521 549.794 88.75C548.597 92.4479 546.904 95.5208 544.716 97.9688C542.581 100.417 540.055 102.266 537.138 103.516C534.274 104.766 531.123 105.391 527.685 105.391C524.248 105.391 521.07 104.766 518.154 103.516C515.289 102.266 512.763 100.417 510.576 97.9688C508.44 95.5208 506.748 92.4479 505.498 88.75C504.3 85.0521 503.701 80.7812 503.701 75.9375C503.701 71.0938 504.3 66.849 505.498 63.2031C506.748 59.5052 508.44 56.4323 510.576 53.9844C512.763 51.5365 515.289 49.6875 518.154 48.4375C521.07 47.1354 524.248 46.4844 527.685 46.4844C531.123 46.4844 534.274 47.1354 537.138 48.4375C540.055 49.6875 542.581 51.5365 544.716 53.9844C546.904 56.4323 548.597 59.5052 549.794 63.2031C551.044 66.849 551.669 71.0938 551.669 75.9375ZM527.451 97.7344C529.378 97.7344 531.201 97.3698 532.919 96.6406C534.69 95.8594 536.253 94.6094 537.607 92.8906C539.013 91.1719 540.107 88.9323 540.888 86.1719C541.669 83.3594 542.086 79.9479 542.138 75.9375C542.086 72.0312 541.669 68.724 540.888 66.0156C540.159 63.2552 539.117 60.9896 537.763 59.2188C536.461 57.4479 534.951 56.1719 533.232 55.3906C531.565 54.6094 529.794 54.2188 527.919 54.2188C525.992 54.2188 524.143 54.5833 522.373 55.3125C520.654 56.0417 519.091 57.2917 517.685 59.0625C516.331 60.7812 515.263 63.0208 514.482 65.7812C513.701 68.5417 513.284 71.9271 513.232 75.9375C513.284 79.8438 513.675 83.1771 514.404 85.9375C515.185 88.6979 516.227 90.9635 517.529 92.7344C518.883 94.4531 520.393 95.7292 522.06 96.5625C523.779 97.3438 525.576 97.7344 527.451 97.7344Z" fill="#18181b"/>
</svg>